<svg fill="none" height="31" viewBox="0 0 102 31" width="102" xmlns="http://www.w3.org/2000/svg" xmlns:xlink="http://www.w3.org/1999/xlink"><clipPath id="a"><path d="m0 .255829h102v30h-102z"/></clipPath><mask id="b" height="18" maskUnits="userSpaceOnUse" width="17" x="85" y="6"><path d="m101.887 23.5818v-16.97297h-16.6775v16.97297z" fill="#fff"/></mask><g clip-path="url(#a)"><g clip-rule="evenodd" fill-rule="evenodd"><path d="m41.5137 13.5165c-.3945-2.2367-2.3683-4.04579-4.8354-4.04579-2.3351 0-4.4405 1.57869-4.8353 4.04579zm-9.7036 2.6315c.6578 2.6643 2.8288 4.2433 5.2299 4.2433 2.0398 0 3.816-1.0854 4.9342-2.1711l1.9738 2.4012c-2.1382 2.1053-4.7038 2.9603-6.9405 2.9603-4.9998 0-8.6182-4.0785-8.6182-8.7166 0-4.7035 3.684-8.25627 8.3222-8.25627 4.7694 0 8.355 3.78287 8.355 9.53917z" fill="#fff"/><path d="m60.8446 15.0955c0-2.8619-2.3352-5.16429-5.1643-5.16429-2.829 0-5.1642 2.30239-5.1642 5.16429 0 2.8287 2.3352 5.1314 5.1642 5.1314 2.8291 0 5.1643-2.3027 5.1643-5.1314zm-.0329-6.51316v-8.289341h3.2893v23.025801h-2.796v-2.0722c-1.4473 1.4142-3.4536 2.3352-5.6575 2.3352-4.7038 0-8.4866-3.8157-8.4866-8.4863 0-4.7038 3.7828-8.48665 8.4866-8.48665 1.9735 0 3.8157.75679 5.1642 1.97349z" fill="#fff"/><path d="m79.8029 15.0955c0-2.8619-2.3352-5.19711-5.1642-5.19711-2.8288 0-5.1974 2.33521-5.1974 5.19711 0 2.8287 2.3358 5.1642 5.1974 5.1642 2.8619 0 5.1642-2.3355 5.1642-5.1642zm3.2564 6.3484c0 6.2827-3.8484 8.7167-7.5653 8.7167-1.3814 0-3.0592-.3289-4.671-1.4143l1.283-2.7303c1.0856.6252 2.0394.9541 3.1907.9541 2.7303 0 4.605-1.875 4.605-5.4931-1.4473 1.3154-3.2564 2.1048-5.2958 2.1048-4.7038 0-8.5195-3.8157-8.5195-8.4863 0-4.671 3.8157-8.48664 8.5195-8.48664 2.171 0 4.1445.85528 5.5918 2.30235v-2.03915h2.8616z" fill="#fff"/></g><g mask="url(#b)"><path clip-rule="evenodd" d="m98.3342 13.5165c-.3948-2.2367-2.3683-4.04579-4.8354-4.04579-2.3355 0-4.4406 1.57869-4.8354 4.04579zm-9.7036 2.6315c.6577 2.6643 2.8288 4.2433 5.2299 4.2433 2.0394 0 3.816-1.0854 4.9342-2.1711l1.9733 2.4012c-2.1378 2.1053-4.7036 2.9604-6.94 2.9604-4.9998 0-8.6185-4.0786-8.6185-8.7167 0-4.7035 3.6843-8.25627 8.3221-8.25627 4.7698 0 8.3554 3.78287 8.3554 9.53917z" fill="#fff" fill-rule="evenodd"/></g><path clip-rule="evenodd" d="m24.6266 3.62823-7.294 20.06347h-16.903279l3.792169-10.4323 6.66171.0005 3.5021-9.63167z" fill="#66eda8" fill-rule="evenodd"/><path clip-rule="evenodd" d="m12.8641.256042-3.81505 10.459858h-9.04895845l3.81707845-10.459858z" fill="#66eda8" fill-rule="evenodd"/></g></svg>