<svg fill="none" height="42" viewBox="0 0 132 42" width="132" xmlns="http://www.w3.org/2000/svg"><g fill="#fff"><path d="m95.0325.20479c-.0487.069606-.0835 1.12065-.0905 3.46636l-.0209 3.36891-1.3155.02088c-.8283.00696-1.3504.04872-1.413.09049-.0696.06264-.0905.4942-.0905 2.01856 0 1.66361.0139 1.94891.1114 2.03941.0905.0905.3202.1114 1.4199.1114h1.3156l.0208 7.3921.0209 7.3991.1949.696c.6682 2.4362 2.2622 4.0302 4.6845 4.6775.6609.174.7799.181 2.9099.2158 2.081.0279 2.234.0209 2.317-.0974.119-.1601.133-4.2042.021-4.42-.069-.1253-.16-.1322-1.28-.1322-.662 0-1.379-.0348-1.58-.0696-.592-.1114-1.086-.3898-1.351-.7587-.466-.6404-.452-.3481-.452-7.9977v-6.9049h2.255c1.963 0 2.276-.0139 2.367-.1114.097-.0905.111-.3758.111-2.03941 0-1.40604-.021-1.94896-.084-2.0116-.062-.06265-.682-.08353-2.366-.08353h-2.283v-3.32715c0-2.895588-.014-3.341064-.112-3.480275l-.104-.153132h-2.5615c-2.0603 0-2.5824.020882-2.645.090487z"/><path d="m44.4362 6.79641c-1.7471.18097-3.3898.80046-4.6914 1.77494l-.6126.45243v-.90487c0-.84919-.0069-.90487-.1531-1.00232-.1322-.09745-.4942-.11137-2.5615-.11137s-2.4292.01392-2.5615.11137l-.1531.10441v12.1671c0 9.3619.0209 12.1809.0835 12.2436.1253.1253 5.2274.1183 5.3318-.007.0557-.0626.0835-2.4501.0975-8.0255l.0208-7.9281.1601-.5568c.5221-1.8446 1.5174-2.8608 3.2506-3.3063.6891-.174 1.9072-.1879 2.6311-.0278 1.6218.3619 2.7076 1.4408 3.1949 3.1949l.1601.5568.0209 7.9977c.0139 5.645.0417 8.0325.0974 8.0951.1044.1253 5.2065.1323 5.3318.007.1044-.1044.1183-16.0859.0139-17.1091-.2436-2.3318-.9814-4.0023-2.3805-5.38049-1.5104-1.4826-3.4524-2.26218-5.9025-2.36659-.4386-.02088-1.058-.00696-1.3782.02089z"/><path d="m22.5035 7.05398c-2.8121.01392-3.6682.04176-3.71.11137-.0905.14617-.0696 3.97445.0278 4.07195.0627.0626.536.0835 1.7054.0835h1.6218v10.1137c0 7.7749.0209 10.1346.0835 10.1972.1183.1183 5.2134.1183 5.3318 0 .1044-.1044.1183-24.32018.0139-24.48723-.0766-.12529.0626-.11833-5.0742-.09049z"/><path d="m56.6241 7.07486c-.0905.03481-.1601.11833-.1601.18794 0 .13921 8.9652 24.2367 9.0696 24.362.0975.1322 4.3156.1322 4.42 0 .1114-.1253 9.0626-24.18103 9.0626-24.34112 0-.09049-.0696-.16705-.1809-.20882-.1044-.04176-1.239-.0696-2.7425-.0696-2.3387 0-2.5754.01392-2.7007.11833-.1044.09048-.9327 2.45011-2.8608 8.15781-1.4965 4.4199-2.7285 8.0464-2.7494 8.0603-.0348.0348-.2019-.4524-3.0766-8.8817-2.1925-6.4385-2.5197-7.33641-2.6589-7.3921-.2088-.08352-5.2204-.0696-5.4223.00696z"/><path d="m82.9837 7.05398c-.0556.02088-.1252.07657-.1531.11833-.0278.04177-.0557 5.54059-.0557 12.22279 0 9.3619.0209 12.174.0836 12.2366.1183.1183 5.2134.1183 5.3317 0 .0627-.0626.0836-2.8886.0836-12.2854v-12.20183l-.181-.06961c-.1879-.07656-4.9211-.09048-5.1091-.02088z"/><path d="m108.759 7.07483c-.098.04176-.16.12529-.16.20882 0 .07656 1.914 5.27615 4.246 11.54755 2.338 6.2715 4.246 11.4432 4.246 11.478 0 .1531-1.344 3.8283-1.601 4.3782-.46.9814-1.058 1.4686-2.019 1.6218-.251.0348-.884.0696-1.406.0696-.87 0-.961.0139-1.03.1322-.042.0905-.07.9606-.07 2.3597 0 2.0603.007 2.2273.125 2.3317.265.2437 3.272.1253 4.469-.167 1.977-.4872 3.376-1.6497 4.316-3.5777.146-.3063 2.763-7.2251 5.819-15.3759l5.54-14.82599-.153-.12529c-.146-.11833-.355-.12529-2.749-.12529-1.434 0-2.673.02784-2.764.06264-.139.05568-.48 1.00232-2.867 8.12293-1.49 4.4409-2.729 8.0882-2.75 8.1161-.028.0278-1.294-3.5708-2.819-8.0047-1.914-5.57539-2.812-8.08816-2.909-8.17865-.126-.11136-.362-.11832-2.729-.11136-1.42 0-2.652.02784-2.735.06264z"/><path d="m6.78653 11.5157c-.06961.0418-.09049.71-.10441 2.8051l-.02088 2.7425-2.77727.0208c-1.9072.007-2.80511.0418-2.87471.0905-.06961.0627-.090492.4803-.090492 2.0047 0 1.0858.027842 1.9698.069606 2.0255.055686.0905.466356.1044 2.888636.1253l2.81903.0209v2.7703c0 2.471.01392 2.7842.11137 2.819.06264.0209.97448.0418 2.03945.0418 1.40604 0 1.94894-.0209 2.01164-.0836.0626-.0626.0835-.7865.0835-2.819v-2.7355h2.7216c1.7401 0 2.7633-.0278 2.8538-.0696.1253-.0696.1323-.1671.1323-2.0812 0-1.768-.014-2.0186-.1114-2.0534-.0627-.0209-1.3434-.0417-2.8538-.0417h-2.7425v-2.7495c0-2.645-.007-2.7494-.1323-2.819-.1601-.0835-3.89092-.0974-4.02317-.0139z"/></g></svg>