<svg fill="none" height="50" viewBox="0 0 191 50" width="191" xmlns="http://www.w3.org/2000/svg" xmlns:xlink="http://www.w3.org/1999/xlink"><clipPath id="a"><path d="m.498108.970337h189.709v48.5581h-189.709z"/></clipPath><g clip-path="url(#a)" fill="#fff"><path d="m117.66 15.8415h19.817v5.2278l-10.778 14.639h10.778v6.1568h-19.817v-5.2278l10.777-14.6389h-10.777z"/><path d="m184.528 32.223c2.432-.9303 4.983-3.3697 4.983-7.6685 0-5.2278-3.592-8.5975-8.923-8.5975h-12.168v25.9081h6.721v-8.713h2.55l4.752 8.713h7.764zm-4.752-5.1123h-4.635v-5.2278h4.635c1.739 0 2.898 1.0458 2.898 2.5562 0 1.6258-1.159 2.6716-2.898 2.6716z"/><path d="m152.079 15.4925c-7.881 0-13.44 5.6923-13.44 13.3608s5.676 13.3609 13.44 13.3609c7.765 0 13.56-5.6936 13.56-13.3609 0-7.6672-5.68-13.3608-13.56-13.3608zm0 20.6803c-3.94 0-6.606-3.0207-6.606-7.3143 0-4.4143 2.666-7.3144 6.606-7.3144s6.722 3.0207 6.722 7.3144c0 4.2936-2.782 7.3143-6.722 7.3143z"/><path d="m95.6407 15.8415h18.7743v6.0414h-12.053v3.833h11.705v5.9259h-11.705v4.182h12.053v6.0413h-18.7743z"/><path d="m29.0041 12.2395c0-6.1594-5.3312-11.269163-11.8209-11.269163s-11.82102 5.112333-11.82102 11.269163v3.602h-4.864072v25.9081l16.685092 7.7789 16.6888-7.784v-25.7926h-4.864zm-17.6156 0c0-2.90389 2.5498-5.22779 5.7947-5.22779 3.2448 0 5.7946 2.3239 5.7946 5.22779v3.602h-11.5893zm15.7609 25.3268-9.9662 4.6478-9.96627-4.6478v-15.5679h19.93247z"/><path d="m92.5123 24.5545c0-5.2278-3.593-8.5975-8.9243-8.5975h-12.1679v25.9081h6.7214v-8.713h2.5498l4.7514 8.713h7.7672l-5.6794-9.6421c2.432-.9303 4.9818-3.3697 4.9818-7.6685zm-9.7358 2.5562h-4.635v-5.2278h4.635c1.7382 0 2.8979 1.0458 2.8979 2.5562 0 1.6258-1.1597 2.6716-2.8979 2.6716z"/><path d="m47.4313 15.8415h20.9756v6.1569h-7.1847v19.8667h-6.7227v-19.8667h-7.0682z"/></g></svg>